<svg xmlns="http://www.w3.org/2000/svg" viewBox="0 0 31.52 58.38"><defs><style>.cls-1{fill:#fff;}.cls-2{fill:#666;}</style></defs><g id="レイヤー_2" data-name="レイヤー 2"><g id="レイヤー_1-2" data-name="レイヤー 1"><path class="cls-1" d="M30.15,58.13a2.59,2.59,0,0,1-1.58-.83L1.46,31.93a3.71,3.71,0,0,1,0-5.48L28.57,1.08A2.54,2.54,0,0,1,30.15.25c.7,0,1.12.75,1.12,2V56.13a3,3,0,0,1-.34,1.54.89.89,0,0,1-.78.46Z"/><path class="cls-2" d="M30.15.5C31,.5,31,1.84,31,2.25V56.13c0,.41-.07,1.75-.87,1.75a2.33,2.33,0,0,1-1.41-.76L1.63,31.75a3.46,3.46,0,0,1,0-5.12L28.74,1.26A2.33,2.33,0,0,1,30.15.5m0-.5A2.73,2.73,0,0,0,28.4.9L1.29,26.27a4,4,0,0,0,0,5.84L28.4,57.48a2.73,2.73,0,0,0,1.75.9c.82,0,1.37-.79,1.37-2.25V2.25C31.52.79,31,0,30.15,0Z"/></g></g></svg>