<svg xmlns="http://www.w3.org/2000/svg" viewBox="0 0 31.52 58.38"><defs><style>.cls-1{fill:#fff;}.cls-2{fill:#666;}</style></defs><g id="レイヤー_2" data-name="レイヤー 2"><g id="レイヤー_1-2" data-name="レイヤー 1"><path class="cls-1" d="M1.37,58.13c-.7,0-1.12-.75-1.12-2V2.25c0-1.25.42-2,1.12-2A2.54,2.54,0,0,1,3,1.08L30.06,26.45a3.71,3.71,0,0,1,0,5.48L3,57.3A2.59,2.59,0,0,1,1.37,58.13Z"/><path class="cls-2" d="M1.37.5h0a2.38,2.38,0,0,1,1.41.76L29.89,26.63a3.46,3.46,0,0,1,0,5.12L2.78,57.12a2.38,2.38,0,0,1-1.41.76c-.81,0-.87-1.34-.87-1.75V2.25C.5,1.84.56.5,1.37.5m0-.5C.54,0,0,.79,0,2.25V56.13c0,1.46.54,2.25,1.37,2.25a2.75,2.75,0,0,0,1.75-.9L30.23,32.11a4,4,0,0,0,0-5.84L3.12.9A2.75,2.75,0,0,0,1.37,0Z"/></g></g></svg>